{"title":"Ki &amp; Ka (2016) ~2CD DvDrip XviD AC3 5.1 MSubs -DDR","uid":14788966,"size":1526838529,"categoryP":"video","categoryS":"movies","magnet":"?xt=urn:btih:29790216ff02fe15869fae2a67d9892a4cd1fcfe&amp;dn=Ki+%26amp%3B+Ka+%282016%29+%7E2CD+DvDrip+XviD+AC3+5.1+MSubs+-DDR&amp;tr=udp%3A%2F%2Ftracker.leechers-paradise.org%3A6969&amp;tr=udp%3A%2F%2Fzer0day.ch%3A1337&amp;tr=udp%3A%2F%2Fopen.demonii.com%3A1337&amp;tr=udp%3A%2F%2Ftracker.coppersurfer.tk%3A6969&amp;tr=udp%3A%2F%2Fexodus.desync.com%3A6969","seeders":1,"leechers":0,"uploader":"SaM","files":4,"time":1465044587,"description":"- BollywooD MoviE -\r\n**- KI &amp; KA -**\r\n- 2016 -\r\n** 1/3 DvD / XviD / AC3 5.1 **\r\nEnglish &amp; Arabic subtitle(s)\r\n \nhttp://extraimago.com/image/aZYM \nhttp://extraimago.com/image/aZY9 \nhttp://extraimago.com/image/aZY3 \nhttp://extraimago.com/image/aZYb \nhttp://extraimago.com/image/aZYh \nhttp://extraimago.com/image/aZYd \nhttp://extraimago.com/image/aZYI \nhttp://extraimago.com/image/aZYl \nhttp://extraimago.com/image/aZYi \nhttp://extraimago.com/image/aZYm \nhttp://extraimago.com/image/aZYR \nhttp://extraimago.com/image/aZYQ\r\n\r\n[ Specs ]\r\nGeneral\r\nSource = DVD9 @ ICTV\r\nFormat : AVI\r\nFile size : 1.42 GiB\r\nDuration : 2h 3mn\r\nOverall bit rate : 1 644 Kbps\r\n\r\nVideo\r\nFormat : MPEG-4 Visual\r\nFormat profile : Advanced   \r\nFormat settings, BVOP : 2\r\nFormat settings, QPel : No\r\nFormat settings, GMC : No warppoints\r\nFormat settings, Matrix : Custom\r\nCodec ID : XVID\r\nDuration : 2h 3mn\r\nBit rate : 1 383 Kbps\r\nWidth : 720 pixels\r\nHeight : 304 pixels\r\nDisplay aspect ratio : 2.35:1\r\nFrame rate : 23.976 (24000/1001) fps\r\nColor space : YUV\r\nChroma subsampling : 4:2:0\r\nBit depth : 8 bits\r\nScan type : Progressive\r\nCompression mode : Lossy\r\nBits/(Pixel*Frame) : 0.264\r\nStream size : 1.19 GiB (84%)\r\nWriting library : XviD 67\r\n\r\nAudio #1\r\nFormat : AC-3\r\nFormat/Info : Audio Coding 3\r\nMode extension : CM (complete main)\r\nFormat settings, Endianness : Big\r\nCodec ID : 2000\r\nDuration : 2h 3mn\r\nBit rate mode : Constant\r\nBit rate : 256 Kbps\r\nChannel(s) : 6 channels\r\nChannel positions : Front: L C R, Side: L R, LFE\r\nSampling rate : 48.0 KHz\r\nFrame rate : 31.250 fps (1536 spf)\r\nCompression mode : Lossy\r\nStream size : 226 MiB (16%)\r\n\r\nChapters: YES\r\nSample: YES - included\r\n\r\nA DDR Exclusive Release...!","torrent":{"xt":"urn:btih:29790216ff02fe15869fae2a67d9892a4cd1fcfe","amp;dn":"Ki+%26amp%3B+Ka+%282016%29+%7E2CD+DvDrip+XviD+AC3+5.1+MSubs+-DDR","amp;tr":["udp%3A%2F%2Ftracker.leechers-paradise.org%3A6969","udp%3A%2F%2Fzer0day.ch%3A1337","udp%3A%2F%2Fopen.demonii.com%3A1337","udp%3A%2F%2Ftracker.coppersurfer.tk%3A6969","udp%3A%2F%2Fexodus.desync.com%3A6969"],"infoHash":"29790216ff02fe15869fae2a67d9892a4cd1fcfe","infoHashBuffer":{"type":"Buffer","data":[41,121,2,22,255,2,254,21,134,159,174,42,103,217,137,42,76,209,252,254]},"announce":[],"urlList":[]}}